# xmcd
#
# Track frame offsets:
#	150
#	15807
#	29755
#	44642
#	58297
#	70817
#	86087
#	99550
#	114107
#	129160
#	144092
#	153807
#	163527
#	179680
#	190497
#	203692
#	215245
#	229092
#	242110
#	254627
#	267055
#	279897
#	293105
#	306302
#
# Disc length: 4250 seconds
#
# Revision: 0
# Processed by: cddbd v1.4PL0 Copyright (c) Steve Scherf et al.
# Submitted via: EasyCDDAExtractor 4.5.0.2
#
DISCID=5c109818
DTITLE=Muddy Waters - First Recording Sessions 1941-1946 In Chronological Orde
DTITLE=r
DYEAR=1900
DGENRE=
TTITLE0=Country Blues
TTITLE1=I Be's Troubled
TTITLE2=Ramblin' Kid Blues (Son Simms Four)
TTITLE3=Rosalie (Son Simms Four)
TTITLE4=Joe Turner Blues (Louis Ford, vcl.)
TTITLE5=Pearly May Blues (Percy Thomas, vcl.)
TTITLE6=Take A Walk With Me
TTITLE7=Burr Clover Blues
TTITLE8=I Be Bound To Write To You
TTITLE9=You Gonna Miss Me When I'm Gone
TTITLE10=You Got To Take Sick And Die Some Of These Days
TTITLE11=Why Don't You Live So God Can Use You
TTITLE12=Country Blues (No. 2)
TTITLE13=Mean Red Spider
TTITLE14=I'm Gonna Cut Your Head (Homer Harris, vcl.)
TTITLE15=Atomic Bomb Blues (Homer Harris, vcl.)
TTITLE16=Tomorrow Will Be Too Late (Homer Harris, vcl.)
TTITLE17=Jitterbug Blues
TTITLE18=Hard Day Blues
TTITLE19=Buryin' Ground Blues
TTITLE20=Come To Me Baby (James "Beale Street" Clark, vcl.)
TTITLE21=You Can't Make The Grade (James "Beale Street" Clark, vcl.)
TTITLE22=Rollin' And Tumblin' Pt. 1
TTITLE23=Rollin' And Tumblin' Pt. 2
EXTD=
EXTT0=
EXTT1=
EXTT2=
EXTT3=
EXTT4=
EXTT5=
EXTT6=
EXTT7=
EXTT8=
EXTT9=
EXTT10=
EXTT11=
EXTT12=
EXTT13=
EXTT14=
EXTT15=
EXTT16=
EXTT17=
EXTT18=
EXTT19=
EXTT20=
EXTT21=
EXTT22=
EXTT23=
PLAYORDER=
